<?xml version="1.0" encoding="UTF-8" standalone="no"?>
<!-- Created with Inkscape (http://www.inkscape.org/) -->

<svg
   version="1.1"
   id="svg1"
   width="1024"
   height="1024"
   viewBox="0 0 1024 1024"
   sodipodi:docname="Image_fx (4).jpg"
   xmlns:inkscape="http://www.inkscape.org/namespaces/inkscape"
   xmlns:sodipodi="http://sodipodi.sourceforge.net/DTD/sodipodi-0.dtd"
   xmlns="http://www.w3.org/2000/svg"
   xmlns:svg="http://www.w3.org/2000/svg">
  <defs
     id="defs1" />
  <sodipodi:namedview
     id="namedview1"
     pagecolor="#ffffff"
     bordercolor="#000000"
     borderopacity="0.25"
     inkscape:showpageshadow="2"
     inkscape:pageopacity="0.0"
     inkscape:pagecheckerboard="0"
     inkscape:deskcolor="#d1d1d1">
    <inkscape:page
       x="0"
       y="0"
       width="1024"
       height="1024"
       id="page2"
       margin="0"
       bleed="0" />
  </sodipodi:namedview>
  <g
     inkscape:groupmode="layer"
     inkscape:label="Image"
     id="g1">
    <path
       style="fill:#000000"
       d="m 492.38219,808.08168 -21.11781,-6.74131 -18.80502,-16.42018 C 405.09797,743.5651 325.27725,674.65396 322.63673,672.84121 c -0.52779,-0.36234 -3.56982,-20.83734 -6.76006,-45.5 -9.52197,-73.61105 -10.88998,-84.02649 -13.49778,-102.76679 l -2.49442,-17.92558 2.68771,-5.98903 c 1.47824,-3.29396 11.84436,-25.10563 23.03582,-48.47037 l 20.3481,-42.48136 -31.88755,-32.60404 C 296.5304,359.17182 280.56528,342.94922 278.5905,341.05383 276.52251,339.06897 275,336.63859 275,335.3223 c 0,-2.89812 13.70319,-110.66721 15.14633,-119.11872 0.59133,-3.46303 1.44589,-6.16303 1.89901,-6 1.02103,0.36736 50.28008,37.85058 82.17963,62.53385 l 23.72498,18.35792 35.52502,-23.502 L 469,244.09135 v 13.89531 c 0,8.76271 0.39395,14.13878 1.06653,14.55446 0.58659,0.36253 1.26083,0.46485 1.4983,0.22738 0.23748,-0.23747 1.81081,-9.1608 3.49629,-19.82962 1.68549,-10.66882 3.17406,-19.5074 3.30795,-19.64128 0.27429,-0.27429 13.02081,16.87663 19.7295,26.54677 4.15484,5.98894 4.42004,6.18987 4.73363,3.58654 0.1827,-1.5168 -0.1548,-10.28945 -0.75,-19.49476 C 501.48699,234.73084 501,225.5375 501,223.50649 v -3.69273 l 4.75,4.03528 c 2.6125,2.21941 15.55,14.18025 28.75,26.57965 l 24,22.54437 0.5,-14.4655 0.5,-14.46549 35.30767,23.51071 35.30767,23.51071 39.69233,-30.36086 c 50.09416,-38.31726 67.15365,-51.08903 67.57959,-50.59417 0.18537,0.21534 0.85725,4.44154 1.49309,9.39154 3.39483,26.42897 14.17055,112.38061 14.37797,114.6847 0.20736,2.30348 -4.76362,7.79386 -35.00832,38.66619 -19.3875,19.78982 -35.25,36.40608 -35.25,36.92503 0,0.51894 10.125,22.15016 22.5,48.06936 12.375,25.9192 22.5,48.07043 22.5,49.22495 0,2.09457 -13.70518,108.86027 -18.47582,143.92977 -1.38414,10.175 -2.51832,19.00145 -2.5204,19.61434 -0.002,0.61289 -12.03254,11.41289 -26.73437,24 -20.81254,17.81887 -94.43617,81.43645 -119.45501,103.22012 -3.08278,2.68415 -7.67994,4.55562 -23.57203,9.59601 -10.8583,3.44386 -20.64237,6.51602 -21.74237,6.82704 -1.13042,0.31961 -11.18184,-2.36558 -23.11781,-6.17583 z m 86.81296,-52.19072 c 7.86767,-9.95997 14.1885,-18.52152 14.04629,-19.02568 -0.14221,-0.50415 -8.88091,-13.61759 -19.41934,-29.14096 -10.53843,-15.52338 -19.2158,-28.31804 -19.28305,-28.4326 -0.0672,-0.11455 -9.17653,-2.25177 -20.24285,-4.74938 l -20.12058,-4.54111 -19.77135,4.48292 c -10.87424,2.46561 -20.09162,4.82783 -20.48307,5.24939 -0.39145,0.42155 -9.3811,13.53169 -19.97699,29.13363 -18.20908,26.81201 -19.18792,28.49019 -17.85473,30.61103 0.77579,1.23413 7.26052,9.49671 14.41052,18.36129 l 13,16.11743 50.69515,0.0215 L 564.8903,774 Z M 469.40987,743.92265 c -8.6066,-2.49826 -10.96461,-10.51771 -5.57988,-18.97687 5.67546,-8.91586 19.68408,-19.85443 25.51572,-19.92382 3.13283,-0.0373 7.54191,3.22144 9.26142,6.84505 3.43175,7.23186 -0.92301,21.95062 -8.29138,28.02426 -5.45927,4.49998 -13.77029,6.10264 -20.90588,4.03138 z M 548.5,744.50852 c -0.55,-0.18347 -2.24885,-0.60936 -3.77521,-0.94643 -4.36203,-0.96327 -10.18581,-6.96969 -13.13965,-13.55173 -4.6989,-10.47053 -3.25369,-20.06192 3.55327,-23.58193 4.46884,-2.31093 8.31062,-1.20022 16.10722,4.6568 C 561.84849,719.0504 568,727.75042 568,734.78079 c 0,6.2151 -12.03387,12.2183 -19.5,9.72773 z m -125.31699,-35.7577 c -0.2641,-12.70618 -0.5907,-15.46137 -1.9574,-16.51272 C 395.62165,672.54209 377.04813,646.53878 367.9935,617.71204 366.22929,612.09542 364.41448,606.6 363.9606,605.5 c -1.24381,-3.01442 -1.1583,9.58555 0.14734,21.71078 4.18892,38.90157 23.08114,71.15016 55.39206,94.55296 1.65,1.19509 3.225,2.18752 3.5,2.2054 0.275,0.0179 0.35735,-6.83037 0.18301,-15.21832 z m 193.47597,7.08319 c 13.26691,-10.47175 27.4463,-27.96894 35.11707,-43.33401 4.14227,-8.29726 8.67002,-21.48568 10.61771,-30.92722 2.05426,-9.95818 3.93683,-31.13823 3.06845,-34.52199 -0.54204,-2.11211 -1.06178,-1.1492 -3.02216,5.59902 -8.53601,29.38361 -28.15646,58.38967 -52.67911,77.87863 l -3.73907,2.97156 -0.67472,15.47233 -0.67473,15.47233 2.91379,-1.87464 c 1.60258,-1.03105 5.68533,-4.06225 9.07277,-6.73601 z m -152.51323,-37.9971 c 1.84484,-2.83969 3.60852,-5.54408 3.9193,-6.00975 0.65621,-0.98328 19.46279,-5.66482 35.59729,-8.86128 l 11.16234,-2.21141 22.27497,4.87276 22.27497,4.87277 3.06269,4.36701 c 5.47611,7.80825 5.61825,7.74575 1.97174,-0.86701 -1.97932,-4.675 -3.96414,-9.43149 -4.41071,-10.56998 -0.94648,-2.41294 -19.02172,-8.90261 -35.51215,-12.75016 l -10.01382,-2.33642 -10.0695,2.30076 c -5.53822,1.26541 -15.64385,4.23418 -22.45694,6.59726 l -12.38745,4.29651 -4.72681,10.73102 C 462.23192,678.17104 460.25935,683 460.44818,683 c 0.18883,0 1.85274,-2.32339 3.69757,-5.16309 z M 411.23389,645.25 c 6.80266,-5.9125 17.81385,-15.38784 24.4693,-21.05631 6.96678,-5.93364 12.62685,-11.57626 13.34066,-13.29955 0.68191,-1.64628 3.29189,-4.43344 5.79995,-6.19369 2.50806,-1.76025 4.92129,-3.45329 5.36275,-3.76231 0.44146,-0.30902 -0.0794,-8.85902 -1.15736,-19 -1.07801,-10.14098 -3.10902,-29.42958 -4.51336,-42.86357 -1.40435,-13.43399 -2.68984,-24.56191 -2.85665,-24.72873 -0.69528,-0.69528 -55.74291,139.0457 -55.26467,140.29196 0.28749,0.74921 0.95656,1.3622 1.48681,1.3622 0.53026,0 6.52991,-4.8375 13.33257,-10.75 z m 220.54216,9.5 c 0.73326,-0.89778 -6.77506,-20.74499 -26.64608,-70.43519 -15.21686,-38.05186 -27.89554,-69.41371 -28.17483,-69.693 -0.27929,-0.2793 -2.46215,18.47904 -4.8508,41.68519 -2.38864,23.20615 -4.52626,42.50689 -4.75025,42.89053 -0.224,0.38364 2.05486,2.55645 5.06412,4.82847 3.00926,2.27201 6.50873,5.8441 7.77659,7.93797 1.28556,2.1231 10.93051,11.10627 21.8052,20.30907 10.725,9.07612 21.3,18.10892 23.5,20.07287 4.50192,4.01891 4.84866,4.15173 6.27605,2.40409 z m -150.45737,-7.09678 c 5.59973,-1.84073 15.26812,-4.59827 21.48532,-6.12788 l 11.30401,-2.78109 11.63856,2.75007 c 6.40122,1.51253 16.34611,4.27588 22.09977,6.14077 5.75366,1.86488 10.57032,3.2724 10.70369,3.1278 0.13337,-0.14459 -0.23777,-4.40677 -0.82476,-9.47152 -0.78161,-6.74405 -1.48985,-9.3795 -2.64626,-9.8471 C 547.14701,628.23693 516.34743,618 514.62959,618 c -2.1017,0 -24.80777,7.35651 -36.76813,11.91246 l -5.63855,2.14784 -0.64069,5.71985 c -0.35238,3.14592 -0.89209,7.40735 -1.19935,9.46985 -0.30727,2.0625 -0.26321,3.75 0.0979,3.75 0.36112,0 5.23818,-1.50605 10.8379,-3.34678 z M 481,618.64769 c 10.175,-3.59205 21.98964,-7.54803 26.25476,-8.79108 l 7.75475,-2.26008 19.24525,6.57161 c 28.69697,9.79905 32.48807,11.3668 36.70945,15.18056 2.12487,1.9197 3.68896,3.6648 3.47575,3.87801 -0.21321,0.21321 2.34245,3.06192 5.67925,6.33047 l 6.06691,5.94282 -8.03403,-16.12036 c -4.41872,-8.8662 -8.6231,-16.35478 -9.34306,-16.64129 -0.71997,-0.28651 -4.28188,-2.70735 -7.91537,-5.37964 -3.63349,-2.67229 -15.67332,-9.35088 -26.75518,-14.8413 l -20.14883,-9.98259 -20.3809,10.2409 c -11.20949,5.6325 -23.82739,12.75785 -28.03977,15.83412 l -7.65888,5.59321 -8.03874,16.14848 L 441.83261,646.5 452.1663,635.83935 462.5,625.17869 Z M 490.00952,583.99523 510,573.99047 V 466.10171 358.21296 l -24.95855,-41.72342 -24.95855,-41.72342 -0.29145,-6.88939 -0.29145,-6.88938 -28,18.64123 c -15.4,10.25268 -28.17285,18.79087 -28.3841,18.97376 -0.45231,0.39158 2.36324,8.22437 9.0454,25.16403 2.66129,6.74651 4.8387,12.92364 4.8387,13.72695 0,0.80332 -1.09482,2.17793 -2.43294,3.0547 -3.42601,2.24481 -5.97431,0.596 -8.17068,-5.28661 -9.53986,-25.5509 -14.69237,-37.96024 -16.19094,-38.99436 -0.98268,-0.67813 -11.89341,-9.01292 -24.24607,-18.52177 -28.08633,-21.62034 -51.01512,-39.04923 -52.90035,-40.21122 -0.92477,-0.56999 -0.69053,0.33955 0.65386,2.53889 1.15216,1.88488 9.16686,15.57705 17.81044,30.42705 8.64358,14.85 16.50632,28.125 17.47275,29.5 0.96644,1.375 4.11856,7.225 7.00472,13 2.88616,5.775 8.0479,15.675 11.47054,22 3.42263,6.325 7.70138,14.30676 9.50834,17.73724 l 3.28538,6.23725 -35.13252,73.4045 C 325.80964,472.75147 310,506.01229 310,506.29192 c 0,0.27963 10.2375,7.61778 22.75,16.307 12.5125,8.68922 23.9126,16.6384 25.33356,17.66484 2.5832,1.86599 2.58554,1.86545 16.79311,-3.81942 7.81525,-3.12712 14.07765,-5.98806 13.91644,-6.35764 -0.16121,-0.36959 -6.05505,-8.86132 -13.09741,-18.87051 l -12.80431,-18.19854 9.45099,-32.25883 9.451,-32.25882 -2.95814,-2.7908 -2.95813,-2.79081 18.7003,-19.45919 C 404.86258,392.75664 413.45212,384 413.66528,384 c 0.36797,0 35.42348,21.46792 42.85507,26.24435 l 3.50953,2.25565 -0.0513,45 c -0.0495,43.42714 0.0551,45.99614 2.99325,73.5 1.67451,15.675 3.8079,36.2625 4.74088,45.75 0.93297,9.4875 1.83357,17.25 2.00133,17.25 0.16776,0 9.30073,-4.50214 20.29549,-10.00477 z M 386.15364,374.53419 C 382.76914,372.04266 380,369.59203 380,369.08836 c 0,-0.50368 3.60765,-3.92482 8.017,-7.60254 7.54247,-6.29097 11.07111,-7.66862 10.92975,-4.2672 -0.16249,3.90992 -4.61816,21.17185 -5.54462,21.48067 -0.60217,0.20072 -3.86399,-1.67357 -7.24849,-4.1651 z M 559,592.65538 c 0,-0.73954 2.25,-22.58971 5,-48.55593 l 5,-47.21132 v -42.31118 -42.31118 l 4.25,-2.82023 c 2.3375,-1.55113 12.55799,-7.92115 22.71219,-14.15562 l 18.46219,-11.33538 11.85798,11.77273 c 6.52188,6.475 15.04177,15.27987 18.93309,19.56637 l 7.07512,7.79363 -2.71318,2.83195 -2.71317,2.83194 9.06789,31.17979 C 660.91945,477.07983 665,491.68632 665,492.38981 c 0,1.08655 -18.4045,28.14445 -24.16816,35.53151 -1.03906,1.33173 -1.53879,2.71131 -1.11052,3.06574 0.42827,0.35444 6.88447,3.01854 14.34711,5.92024 l 13.56844,5.27582 24.80136,-17.32195 c 13.64075,-9.52707 24.9902,-17.81405 25.221,-18.41551 0.40992,-1.06824 -10.28838,-23.90625 -50.032,-106.80494 l -19.58891,-40.85928 7.66743,-14.14072 c 4.21709,-7.7774 11.09169,-20.66572 15.27688,-28.64072 6.05489,-11.53774 33.88306,-59.85776 44.26403,-76.85876 2.13544,-3.49722 0.43374,-2.26892 -43.24666,31.2159 -8.525,6.53515 -20.04761,15.31577 -25.6058,19.51248 L 636.28841,297.5 628.3942,318.34694 c -7.97301,21.05506 -10.03037,24.49738 -13.78108,23.0581 -4.0956,-1.57164 -3.76969,-3.67729 3.48574,-22.52072 3.88101,-10.07957 7.26679,-18.66694 7.52395,-19.08303 0.25716,-0.41609 -12.49027,-9.38289 -28.32762,-19.92621 L 568.5,260.70539 l -0.52644,7.89731 -0.52644,7.8973 -21.01481,35 c -11.55815,19.25 -22.45876,37.52978 -24.22357,40.62173 L 519,357.74345 l 0.0386,108.37828 0.0386,108.37827 19.21137,9.66906 c 10.56625,5.31799 19.54887,9.70549 19.96137,9.75 0.4125,0.0445 0.75,-0.52414 0.75,-1.26368 z M 634.65529,378.25 C 633.79855,376.86142 630,359.86574 630,357.42104 630,356.08947 630.5751,355 631.278,355 c 1.31202,0 15.65908,11.28016 16.89923,13.28677 0.9893,1.60072 0.38565,2.25647 -6.18438,6.71808 -6.26321,4.25327 -6.61859,4.41044 -7.33756,3.24515 z m -213.85933,96.08332 c -6.21278,-5.31667 -12.36917,-10.60417 -13.68086,-11.75 l -2.3849,-2.08332 0.68131,8 c 0.37472,4.4 0.94294,9.6875 1.26271,11.75 l 0.5814,3.75 h 12.41814 12.41815 z M 622.06292,481.25 c 0.0346,-1.5125 0.43424,-6.575 0.88808,-11.25 0.45383,-4.675 0.66608,-8.67193 0.47167,-8.88208 -0.27618,-0.29851 -16.94922,13.85248 -25.38696,21.54681 -1.22872,1.12046 0.58112,1.33527 11.25,1.33527 H 622 Z M 450.47415,449.24957 450.44831,417.5 433.47415,406.79649 c -9.33578,-5.88694 -17.45889,-10.72444 -18.05136,-10.75 -0.59246,-0.0256 -6.75397,5.96239 -13.69225,13.30658 l -12.61504,13.35307 30.69225,29.12464 c 16.88074,16.01856 30.69225,29.13448 30.69225,29.1465 0,0.012 -0.0116,-14.26545 -0.0258,-31.72771 z m 176.01536,-14.48436 12.98951,-12.46892 -12.90979,-13.14814 C 619.46885,401.91667 613.30812,396 612.87872,396 c -0.4294,0 -8.45278,4.78955 -17.82973,10.64344 L 578,417.28689 v 31.97345 31.97345 l 17.75,-16.99983 c 9.7625,-9.3499 23.59528,-22.61084 30.73951,-29.46875 z M 534.65071,312.70794 C 544.74282,295.7723 553,281.53142 553,281.06153 c 0,-0.46989 -1.6875,-2.31417 -3.75,-4.0984 -2.0625,-1.78424 -11.30459,-10.43876 -20.53798,-19.23229 -9.23338,-8.79352 -16.93544,-15.81781 -17.11568,-15.60953 -0.18024,0.20828 0.26601,10.04129 0.99166,21.85113 1.21033,19.69782 1.18288,21.62326 -0.33214,23.29733 -3.47,3.83431 -5.62613,1.97067 -16.43841,-14.20836 -5.6746,-8.49122 -10.74008,-15.46622 -11.25662,-15.5 -0.51654,-0.0338 -1.72537,4.86502 -2.68627,10.88622 -1.40266,8.78932 -2.17069,11.26714 -3.89571,12.56833 -2.13825,1.61288 -2.05566,1.77639 17.1084,33.87048 15.90488,26.63594 19.42736,31.93329 20.23559,30.43167 0.53822,-0.99996 9.23576,-15.67454 19.32787,-32.61017 z"
       id="path1" />
  </g>
</svg>
