<?xml version="1.0" encoding="UTF-8"?>
<!DOCTYPE svg PUBLIC "-//W3C//DTD SVG 1.1//EN" "http://www.w3.org/Graphics/SVG/1.1/DTD/svg11.dtd">
<!-- Creator: CorelDRAW -->
<svg xmlns="http://www.w3.org/2000/svg" xml:space="preserve" width="130mm" height="130mm" version="1.1" style="shape-rendering:geometricPrecision; text-rendering:geometricPrecision; image-rendering:optimizeQuality; fill-rule:evenodd; clip-rule:evenodd"
viewBox="0 0 13000 13000"
 xmlns:xlink="http://www.w3.org/1999/xlink"
 xmlns:xodm="http://www.corel.com/coreldraw/odm/2003">
 <defs>
  <style type="text/css">
   <![CDATA[
    .str0 {stroke:#00AFEF;stroke-width:16.93;stroke-miterlimit:22.9256}
    .fil6 {fill:none}
    .fil5 {fill:#FEFEFE}
    .fil2 {fill:#F58634}
    .fil4 {fill:#F58634}
    .fil0 {fill:#00AFEF}
    .fil1 {fill:#246DB4}
    .fil3 {fill:#246DB4}
   ]]>
  </style>
    <clipPath id="id0">
     <path d="M12114.53 6470.37c0,3080.15 -2422.98,5577.1 -5411.88,5577.1 -2988.9,0 -5411.88,-2496.95 -5411.88,-5577.1 0,-3080.14 2422.98,-5577.09 5411.88,-5577.09 2988.9,0 5411.88,2496.95 5411.88,5577.09z"/>
    </clipPath>
 </defs>
 <g id="Camada_x0020_1">
  <metadata id="CorelCorpID_0Corel-Layer"/>
  <g id="_1835718576368">
   <path class="fil0" d="M6702.64 6502.4l2155.4 5588.56c-3027.51,1203.5 -6446.8,-322.96 -7637.19,-3409.43 -1190.39,-3086.48 298.89,-6564.2 3326.4,-7767.7 3027.51,-1203.5 6446.8,322.96 7637.19,3409.44l-5481.8 2179.13z"/>
   <path class="fil1" d="M12114.53 6470.37c0,3080.15 -2422.98,5577.1 -5411.88,5577.1 -2988.9,0 -5411.88,-2496.95 -5411.88,-5577.1 0,-3080.14 2422.98,-5577.09 5411.88,-5577.09 2988.9,0 5411.88,2496.95 5411.88,5577.09z"/>
   <g style="clip-path:url(#id0)">
    <g>
     <rect class="fil2 str0" x="-1.83" y="-1068.11" width="13337.21" height="8453.38"/>
     <rect class="fil3 str0" x="-1.83" y="7315.27" width="13337.21" height="8453.38"/>
     <path class="fil4" d="M1102.48 7050.11c0.57,270.81 56.37,517.51 119.58,764.03 28.76,112.05 72.25,235.62 117.32,331.43 45.56,96.8 90.1,263.79 123.1,357.34 69.05,195.61 347.98,678.64 495.99,864.76 64.55,81.2 131.85,214.57 248.76,229.84 456.27,-102.81 945.69,-22.21 1352.59,92.77 445.49,125.87 556.24,341.99 786.3,631.85 356.96,449.73 1403.24,750.68 1926.2,924.76 -51.11,-356.05 -384.47,-434.28 -758.2,-552.63 -287.51,-91.06 -650.51,-317.07 -659.38,-621.47 98.32,264.61 481.04,478.73 810.51,543.43 305.22,59.95 360.45,134.88 625.82,404.2l139.14 158.65c2.51,-5.08 11.62,11.13 18.02,16.09 208.35,-159.72 102.94,-680.2 63.62,-752.57 -83.63,-153.87 -293.31,-343.33 -429.13,-454.96 -210.29,-172.78 -1049.8,-263.13 -697.49,-931.32 243.54,-12.46 364.09,179.93 755.68,169.36 439.54,-11.86 303.8,-257.83 478.74,-421.59 78.07,11.9 39.52,-0.97 84.19,36.96l64.06 175.86c170.24,578.91 762.08,92.06 1188.9,8.08 4.74,6.64 9.68,16.39 12.19,20.95 436.14,799.32 -832.18,700.92 -1099.29,1243.16 -26.76,54.32 -39.07,103.89 -66.69,156.24 -29.68,56.36 -43.21,55.1 -65.89,128.95 -36.65,119.39 -40.37,227.17 -16.24,330.84 94.16,-34.97 103.63,-64.33 205.19,-124.47 180.13,-106.63 952.66,-361.75 1216.52,-455 188.23,-66.51 315.5,-194.46 414.56,-220.79 -337.41,328.02 -461.04,368.32 -992.26,569.86 -200.74,76.16 -399.04,137.19 -581.35,220.42 -160.97,73.49 -395.76,186.5 -392.97,351.52 548.39,56.91 2038.7,-564.26 2327.47,-807.7 303.96,-256.27 335.26,-545.21 816.51,-728.55 590.3,-224.87 833.76,-76.6 1431.43,-148.2 179.67,-117.68 741.1,-1147.1 811.64,-1394.43 99.74,-349.74 184.01,-766.22 197.3,-1144.25l-598.48 387.41c-197.9,133.18 -380.5,245.07 -589.98,370.28 -1703.56,1018.22 -1483.51,166.55 -2231.62,436.61 -256.21,92.47 -402.52,241.03 -629.7,335.21 -818.98,339.5 -859.84,174.25 -1230.57,202.17 -439.25,33.07 -188.34,-47.34 -343.48,-73.63 -202.72,-34.33 -549.52,387.56 -1470.63,-256.53 -794.72,-555.74 -729.85,-76.08 -1499.5,-135.22 -503.89,-38.71 -999.71,-342.95 -1323.11,-544.8 -209.4,-130.69 -383.12,-228.94 -567.78,-359.49 -102.94,-72.78 -182.11,-113.04 -278.57,-185.05 -92.41,-68.96 -166.64,-127.91 -309.02,-150.38z"/>
     <g>
      <path class="fil5" d="M6263.31 11287.22l248.48 -1163.74 114.88 1388.6 -215.59 -50.46 -196.49 -38.57 48.72 -135.83zm1845.51 -390.98c127.47,-62.5 40.32,-120.14 368.33,282.01 -6.57,7.3 -14.69,18.96 -18.64,22.72 -151.94,144 -290.22,155.88 -634.59,54.05 119.86,-129.19 223.25,-173.54 284.9,-358.78zm0 0c-232.18,214.67 -31.17,110.98 -357.3,312.57 -92.35,-240.06 -30.02,-583.64 -6.86,-845.65l364.16 533.08zm-1163.56 -47.08l-151.32 85.43 -43.52 -990.8c96.76,173.58 223.26,744.8 194.84,905.37zm-1792.56 -500.66c169.39,-95.35 131.19,11.33 220.74,-88.7 31.8,207.64 6.4,78.78 -21.9,123.46 -76.12,238.7 -138.96,541.58 -291.71,742.57 -126.21,-80.91 -394.81,-357.47 -431.7,-503.6 144.63,-152.39 271.98,-220.55 524.57,-273.73zm2877.09 -187.65l547.04 142.04 163.49 22.67 489.06 115.56c-40.89,317.87 -255.97,525.18 -542.7,640.85l-127.06 -108.75c-7.09,-7.08 -16.13,-17.98 -23.22,-25.01l-191.92 -233.68 -156.29 -231.34c-35.8,-93.83 -36.25,-115.51 -117.06,-138.12 -70.28,-61.46 -46.43,-12.92 -135.18,-134.91 -38.95,-53.5 -35.12,-69.09 -71.09,-141.6 328.37,7.95 97.05,-19.51 164.93,92.29zm-1948.56 80.31c8.69,-6.37 69.14,-35.25 87.5,-56.72 -42.61,676.05 -56.33,878.19 -850.99,1040.72 -20.59,-217.56 188.66,-665.1 300.86,-853.56 115.34,-193.8 416.37,-487.42 606.63,-568.55 -1.55,232.6 -78.01,268.12 -144,438.11zm-587.47 -346.63c-282.21,227.48 -705.96,402.54 -1159.33,469.01 -231.03,-148.26 -457.03,-252.32 -531.03,-406.9l1690.36 -62.11zm2467.92 -11.82c127.47,-54.21 228.11,-19.18 384.58,-5.67 162.58,14 321.15,16.24 483.62,24.79 274.78,14.44 646.31,12.04 908.74,46.04l-461.03 332.63c-1.26,-5.66 -6.58,13.35 -10.58,19.62 -463.21,-149.95 -898.79,-218.98 -1305.33,-417.41zm-1702.94 -3026.47l14.58 235.1 -249.85 -200.83c-224.79,-197.51 -547.78,-317.21 -866.71,-390.28l-48.61 97.48 -152 -91.32c-84.17,-25.39 -98.53,-12.26 -185.62,-10.46 -189.63,3.92 -184.83,-1.15 -330.71,-20.92 108.88,211.61 -71.2,95.73 173.22,142.85 -74.63,24.8 -7.32,12.59 -53.13,80.21 1054.51,32.09 2012.26,1116.66 1580.45,2281.71 -338.08,912.03 -2250.78,738.55 -3224.72,791.94 137.13,93.66 336.6,140.57 522.8,126.57 -85.33,46.58 -331.28,121.17 -375.54,201.54 -57.48,104.45 -12.13,14.82 19.78,72.03 191.92,18.85 439.48,-444 1106.44,260.98 -442.51,97.75 -411,19.45 -801.46,20.65 158.23,36.78 329.73,66.04 496.08,87.34 11.84,1.47 24.54,6.05 35.69,6.92 195.52,15.64 159.32,-100.31 411.28,-17.82 -8.01,348.87 -266.49,245.57 -343.97,549.1 276.2,-35.2 257.16,-275.42 541.15,-357.09 177.27,131.2 369.48,362.98 493.86,545.01l-99.22 359.93c337.62,52.47 99.39,45 265.46,-193.97 56.38,-81.13 1.43,-25.01 82,-73.23 134.04,-80.2 331.34,-128.31 470.76,-123.02 112.65,-105.16 101.39,-112.02 277.81,-155.67 7.32,107.45 37.68,259.95 -57.82,304.68 25.28,199.04 -51.18,381.51 17.9,512.81 176.93,-4.74 126.95,113.39 235.72,-422.14 168.64,37.7 179.39,30.51 267.8,169.99 91.79,-63.42 -90.92,-69.25 181.45,-56.83l27.22 273.02c47.18,271.72 -25.79,97.15 109.92,150.66 72.85,-82.99 50.49,105.21 70.56,-187 2.75,-40.64 -6.92,-135.83 -5.54,-196.8l-44.84 -105.15c4.46,-112.89 -22.93,-295.96 -10.18,-395.24 23.22,-180.89 35.34,-57.26 126.67,-223.38l7.84 -56.45 125.23 -7.14 -27.73 106.58 -16.99 379.92c59.13,36.67 43.12,16.83 113.29,50.61l-14.76 -133.37c-17.32,-147 -15.26,-96.33 30.48,-236.69 56.45,-173.37 59.88,108.97 39.63,-194.94 -34.99,-375.51 -139.24,-530.63 -96.3,-966.07l339.75 303.48c41,-82.11 102.02,585.33 5.37,895.07 -64.05,70.29 -26.7,2.24 -27.62,140.36l43.23 75.84c-32.08,45.82 -32.94,44.02 -72.8,83.42l8.47 71.64c121.92,13.03 46.09,-115.45 80.92,120.96 65.13,442.04 -125.53,430.38 233.77,422.26 1.15,-242.9 -30.08,-385.43 29.57,-624.83 363.64,96.38 481.56,144.54 802.83,-39.23l155.43 95.29c151.26,-24.52 56.62,6.27 81.49,-64.35l-60.78 -151.79c128.61,-134.42 222.62,-156.1 324.41,-260.6 83.15,-85.33 144.45,-208.63 200.15,-306.48l215.37 112.18c-74,-105.04 -120.04,-97.03 -122.04,-204.1 71.14,-25.22 -120.32,-91.8 248.53,26.05 137.99,44.13 136.56,35.63 285.47,42.55 -107.85,-101.94 -249.5,-190.42 -421.11,-204.37 79.71,-201.38 -54.5,-57.21 176.76,-196.75 517.82,-312.52 264.25,-48.6 742.22,-99.43l-266.95 -169.5 403.16 -123.47c-250.76,-103.19 -2570.05,122.65 -3121.61,-601.4 -406.02,-533.08 -277.92,-1866.33 861.34,-2358.71l317.72 -299.28c4.23,-14.33 18.53,-14.11 25.96,-17.16l-90.98 -36.56c-487.8,-1.04 -1108.44,321.51 -1277.82,600.2 -126.15,46.69 181.05,86.9 -197.75,27.9 81.37,90.12 90.87,70.61 41.57,116.7 -87.55,81.84 -86.29,43.37 -229.54,20.38 70.79,153.05 58.5,63.15 14.52,142.43l-316.92 -59.01c129.53,-373.17 118.03,-308.5 100.07,-675.34l-152.91 -208.52c-1.14,-16.45 -8.75,-22.44 -15.16,-32.69 -58.78,73.99 -59.93,-103.25 -66.27,179.69 -58.45,-197.18 -5.38,-49.2 -86.01,-134.57 -15.56,416.37 139.76,140.4 182.25,508.4 -146.11,-42.34 -1.37,-91.76 -142.79,-5.24 6.52,-244.14 19.73,-34.05 -90.64,-103.24z"/>
      <path class="fil5" d="M6544.9 4031.25l22.41 139.32 -40.37 305.28 -70.85 1341.2c-161.96,-91.48 -196.5,-167.05 -307.95,-298.09 -88.58,-104.12 -190.49,-175.17 -282.61,-280.27 -330.83,-377.31 -220.51,-243.06 -455.61,-661.45 -157.83,38.03 1.26,-28.71 -100.53,48 -9.26,6.98 -21.84,98.62 -43.8,53.02 -3.72,-7.69 -10.7,20.59 -17.96,29.64 -92.53,-108.26 -61.19,-86.2 -213.25,-188.58 -157.43,80.37 11.1,-55.84 -137.36,178.93 -5.37,8.5 -21.9,42.99 -26.02,34.98 -4.4,-8.55 -20.01,23.92 -29.85,36.02l26.31 22.61c55.81,66.42 174.24,151.63 -11.73,160.73 108.77,71.97 152.29,66.36 268.32,165.47 1024.03,874.81 945.63,1445.86 1134.69,1738.18 110.37,69.19 97.16,-140.9 90.64,103.24 141.42,-86.52 -3.32,-37.1 142.79,5.24 -42.49,-368 -197.81,-92.03 -182.25,-508.4 80.63,85.37 27.56,-62.61 86.01,134.57 6.34,-282.94 7.49,-105.7 66.27,-179.69 6.41,10.25 14.02,16.24 15.16,32.69l152.91 208.52c17.96,366.84 29.46,302.17 -100.07,675.34l316.92 59.01c43.98,-79.28 56.27,10.62 -14.52,-142.43 143.25,22.99 141.99,61.46 229.54,-20.38 49.3,-46.09 39.8,-26.58 -41.57,-116.7 378.8,59 71.6,18.79 197.75,-27.9 -44.09,-60.15 -100.76,-20.81 -8.75,-360.42 97.16,-358.45 221.88,-676.75 445.42,-959.42 320.19,-404.93 587.02,-754.94 1108.09,-824.57l18.3 -93.88c-219.48,-10.03 -101.44,38.63 -180.42,-72.41 -79.37,-77.53 -30.54,-63.8 -167.55,-73.88l151.77 -257.88 8 9.37 -135.18 3.87c-36.43,44.35 -121.07,150.54 -158.47,181.38 -166.98,137.63 -109.96,100.36 -147.99,0.76l-181.57 -119.54c-140.45,442.47 -424.72,770.09 -736.38,1075.97 -119.58,117.36 -195.98,148.96 -271.98,264.2l-87.61 -1297.89c3.38,-174.84 -14.07,-234.12 -6.86,-384.17 -18.59,-24.52 -20.02,13.02 -43.58,-103.14 -0.11,-0.76 -2.17,-87.94 -1.31,-100.74 3.26,-46.97 18.81,-44.95 22.3,-144.01l-151.43 50.29c-65.42,47.35 -33.85,24.41 -76.74,68.16 -4.35,4.42 -27.74,43.37 -71.48,89.85z"/>
      <path class="fil5" d="M3373.7 3010.53l148.29 508.29 -344.21 68.87c-113.23,-231.29 -470.92,-465.09 -793,-376.44 -33.74,181.11 108.43,214.29 249.79,232.71 -132.15,36.28 -124.21,90.44 -198.6,80.91 126.55,111.85 198.43,210.36 411.16,199.57l-55.35 -245.83c175.96,129.78 225.65,91.97 493.4,103.08 62.1,147.28 89.89,238.7 220.51,329.42 18.7,-52.36 32.71,-134.74 15.67,-259.18 16.47,-13.41 35.74,-71.22 42.49,-46.81 3.77,13.84 32.65,-4.08 36.77,-1.47 6.23,3.87 14.64,35.96 31.16,43.92l25.39 -13.57c273.75,88.37 240.24,197.4 634.25,204.59l-8 -211.4c-92.36,-236.19 -190.2,-257.11 -286.33,-460.02l258.99 -17.54 -49.41 -150.65 -75.6 -68.05 -156.57 -88.65c-7.09,-3.92 -155.95,-77.53 -160.24,-78.78 -202.55,-59.94 -209.13,-8.18 -281.64,83.52 -168.7,-159.97 -116.31,-162.04 -328.93,-236.03l-45.35 42.94 -16.41 120.95c104.82,69.8 156.86,96.99 231.77,235.65z"/>
      <path class="fil5" d="M9647.07 6478.38c91.15,53.94 -90.24,8.01 106.08,46.81 48.66,9.59 125.52,8.55 178.7,10.73 -211.47,28.28 -9.15,-14.28 -99.5,72.03 287.42,128.53 733.52,129.07 1042.79,220.66 352.49,104.45 595.36,304.08 777.04,-121.23 172.76,138.67 315.78,161.71 492.6,14.17 -366.05,-219.9 -215.99,-48.93 -498.38,-98.24 -182.19,-31.82 -187.97,-210.31 -501.29,-71.86 -405.62,179.2 -330.48,171.73 -1140.46,20.21l1095.46 -248.07c12.41,-9.75 37.05,-33.56 40.6,-38.9l28.13 -55.74c35.17,-42.71 14.24,-59.17 200.67,-73.28 159.26,-159.04 396.64,-233.63 524.62,-369.41 55.25,-58.51 142.34,-205.3 125.18,-287.46 -33.28,-158.88 -126.43,-120.52 -344.48,-101.12 -135.14,138.33 -232.69,237.11 -320.76,432.12 -89.21,197.5 -152.97,293.18 -378.4,375.78 -363.13,132.99 -854.53,290.07 -1328.6,272.8z"/>
      <path class="fil5" d="M10163.68 4263.95l200.67 60.37c-191.63,31.77 -277.18,73.72 -339,148.53 -75.37,130 -88.41,158.71 -234.18,194.51 -109.96,149.56 -75.59,67.83 -63.7,295.53 404.53,25.33 608.29,-52.91 938.71,-174.68 207.81,-56.67 282.95,-197.89 395.67,-261.15 268.09,-150.54 -14.53,90.12 513.24,-98.89l-5.94 3.65c54.78,-124.39 66.39,-103.25 130.67,-259.73l-412.2 -8.33 -232.98 221.31c-226.8,-103.95 -332.53,-100.79 -628.99,-102.43 114.72,-65 103.22,-84.23 219.43,-144.22 -165.21,-4.68 -284.28,-22.07 -465.96,18.04l-15.44 107.49z"/>
      <path class="fil5" d="M9267.58 2929.02l-2.92 169.01c2.52,1.53 80.64,53.62 93.85,63.31l59.35 52.15c-152.57,141.38 -316.92,258.04 -348.94,544.41 -0.63,202.36 -10.87,28.49 53.01,98.89l189.91 -39.72 220.8 0.76c140.67,-200.28 275.92,-132.61 375.88,-424.38 45.23,-131.91 47.92,-221.21 100.48,-318.79 87.89,-163.29 17.72,-84.07 213.07,-178.82 -38.77,-163.35 -23.73,-55.63 73.6,-95.57 -17.27,-274.66 37.74,-112.18 -109.85,-168.14 -171.73,32.97 -240.13,90.94 -299.72,232 -100.7,-157.95 65.94,-66.96 -151.37,-113.98 -175.16,-37.93 -340.83,59.06 -467.15,178.87z"/>
      <path class="fil5" d="M4405.39 1816.38c-60.1,515.43 -65.99,473.48 7.1,982.58 146.22,86.69 79.83,110.83 209.93,249.27 277.46,-2.67 474.07,-134.03 477.44,-455.65 4.81,-454.24 -149.14,-372.84 -255.16,-742.85 -11.73,-77.64 27.9,-30.29 -41.98,-89.79l-178.13 -34.87c-93.5,35.41 -131.93,51.92 -219.2,91.31z"/>
      <path class="fil5" d="M8486.88 1944.04c-26.25,273.84 -139.37,325.99 -115.46,650.23 12.98,175.87 65.02,262.29 196.2,381.61l119.06 96.93c128.16,-51.38 153.26,-90.18 273.52,-155.01 27,-132.57 78.58,-220.94 105.11,-372.57 20.48,-117.03 4.69,-358.18 44.61,-433.37 -4.98,100.52 23.9,33.83 -47.47,81.83 -60.84,-463.34 -114.2,-479.68 -378.91,-526.81l-196.66 277.16z"/>
      <path class="fil5" d="M6258.39 1991.72c48.9,391.36 241.5,661.12 267.81,1428.81l-157.04 -274.82c-14.18,-32.2 -67.13,-156.81 -73.37,-164.93 -92.29,-120.3 70.51,-54.05 -124.43,-83.03 82.97,322.93 266.08,455.05 362.9,1058.15l10.64 75.35c43.74,-46.48 67.13,-85.43 71.48,-89.85 42.89,-43.75 11.32,-20.81 76.74,-68.16l151.43 -50.29c-3.49,99.06 -19.04,97.04 -22.3,144.01 -0.86,12.8 1.2,99.98 1.31,100.74 23.56,116.16 24.99,78.62 43.58,103.14 83.09,-361.78 61.42,-472.22 219.08,-798.75 165.09,-341.95 208.9,-496.79 372.28,-527.58 -166.53,19.56 -223.65,121.23 -308.4,251.12 -11.21,-132.18 8.06,-190.42 42.83,-285.6l-100.59 -34.93c-3.89,236.68 -22.93,368.7 -105.68,550.3 -59.08,129.62 -160.35,266.43 -151.89,400.62l26.02 -685.14c-76.34,64.83 -18.58,-31.82 -83.32,89.52 -73.71,138.17 -19.96,18.85 15.04,60.31l-44.6 -932.18 -49.93 1.31 -9.2 917.79c-65.48,-196.14 -104.83,-487.47 -162.76,-691.84l-164.06 -590.4 -103.57 96.33z"/>
      <path class="fil5" d="M2016.05 6278.86c460,74.32 867,213.2 1368.92,288.99 -661.64,213.2 -767.84,130.82 -1110.33,19.5 -343.23,-111.53 -347.74,59.12 -545.15,62.39 -221.71,3.65 -250.99,-113.93 -482.71,87.34 83.78,51.27 119.46,123.95 284.56,109.78 123.46,-10.62 71.6,-6.37 136.1,-62.33 9.38,-8.11 34.83,-38.3 39.4,-59.33 3.55,-16.51 9.55,-22.5 16.24,-32.75 121.7,140.08 125.36,306.48 378.8,285.29 153.09,-12.81 1063.15,-363.42 1677.73,-327.78 -104.42,-68.87 -158.24,-81.51 -300.06,-109.95l305.09 -72.74c-273.63,64.24 -612.4,-27.46 -857.1,-91.92 -114.09,-30.02 -261.8,-65.87 -372.86,-105.75 -134.56,-48.33 -166.06,-87.29 -290.27,-127.77 -61.65,87.56 17.61,31.22 -113.97,99.65l-134.39 37.38z"/>
      <path class="fil5" d="M4775.33 3233.7l-62.22 -129.51c146.74,-54.16 261.06,-84.67 352.73,-156.32 -35.23,145.48 -91.39,218.92 -127.36,372.08l-163.15 -86.25zm-362.84 -434.74c12.46,158.66 -10.07,71.05 50.21,160.57 -54.79,42.45 8.23,3.87 -44.78,22.12 -36.89,12.7 -26.82,0.77 -61.65,13.41 10.12,340.04 262.6,728.84 123.24,944.55 -79.26,-87.34 -53.87,-57.05 -100.59,-145.26l-95.5 -167.16 8 211.4c-394.01,-7.19 -360.5,-116.22 -634.25,-204.59l291.99 209.11c158.7,65.71 242.07,47.13 391.1,132.95 206.56,118.94 362.5,353.71 524.91,504.91l59.13 -46.04c-296.28,-485.68 -399.27,-576.51 -390.75,-1337.12 80.57,67.29 -6.86,15.26 107.28,78.79 126.04,70.12 23.9,22.88 134.5,57.1l439.59 1198.61 -2.06 -42.5c19.44,-460.18 -348.66,-684.6 -110.42,-1296.3 92.41,-237.34 110.19,-442.42 53.69,-715.77 -85.78,-415.06 -135.87,-450.97 -311.43,-528.01 106.02,370.01 259.97,288.61 255.16,742.85 -3.37,321.62 -199.98,452.98 -477.44,455.65 -130.1,-138.44 -63.71,-162.58 -209.93,-249.27z"/>
      <path class="fil5" d="M7528.15 1655c-73.65,137.52 -130.9,268.67 -244.87,381.34 51.53,139.86 -89.61,0.87 96.25,104.23l81.43 26.81c-78.63,26.75 -167.79,27.73 -290.51,222.51 -71.36,113.33 -91.09,238.54 -78.11,385.21l100.59 34.93c120.66,-71.05 382.57,-308.01 392.18,-499.63 9.03,-179.64 -4.75,-146.62 -119.86,-201.54 163.95,-83.53 668.56,-167.49 612.57,-780.93 -245.44,-29.86 -430.49,213.74 -549.67,327.07z"/>
      <path class="fil5" d="M3496.65 6987.44c80.35,-57.76 123.75,-80.91 195.41,-119.6 98.24,-52.96 38.6,9.92 129.98,-76.44l-32.02 -94.64c-307.15,242.95 -655.36,356.71 -1049.31,315.58 -427.87,-44.74 -904.8,151.46 -944.83,496.57 356.44,89.14 685.38,68.98 946.43,-159.53 304.8,-266.76 311.78,-201.76 754.34,-361.94z"/>
      <path class="fil5" d="M9758.58 6877.43l151.66 101.72c99.5,27.46 152.28,46.48 234.06,79.72 18.3,7.46 86.86,36.61 101.33,42.11 45.47,17.33 75.03,25.83 109,38.09 233.55,84.12 828.51,692.94 1270.79,344.23 -75.03,-291.71 -404.31,-477.83 -767.55,-493.52 -269.98,-11.72 -308.18,78.29 -556.25,25.28 -189.75,-40.59 -268.89,-125.59 -474.88,-165.31l-68.16 27.68z"/>
      <path class="fil5" d="M3657 4751.32c-410.31,-154.9 32.14,-369.41 -1208.34,-359 11.09,204.43 -3.83,224.04 131.81,337.53 267.46,223.72 711.17,248.84 1117.59,241.59l-41.06 -220.12z"/>
      <path class="fil5" d="M7664.03 4326.07c122.55,56.55 17.61,0.71 140.67,76.17 49.13,30.18 61.82,42.06 96.19,63.04 153.2,-205.19 238.7,-491.84 191.06,-822.34 -82.12,-176.15 -37.74,-187.21 -178.99,-310.3 -459.78,261.31 -568.37,550.9 -248.93,993.43z"/>
      <path class="fil5" d="M5328.72 4298.12l166.3 91.2c303.31,-89.3 350.15,-218.64 330.36,-567.35 -24.25,-307.13 -216.33,-374.85 -426.72,-492.16 -87.72,159.21 -144.62,222.19 -160.18,460.29 -10.12,154.85 37.23,394.91 90.24,508.02z"/>
      <path class="fil5" d="M3657 4751.32l41.06 220.12c-406.42,7.25 -850.13,-17.87 -1117.59,-241.59 -135.64,-113.49 -120.72,-133.1 -131.81,-337.53 1240.48,-10.41 798.03,204.1 1208.34,359zm-1860.6 -354.42l39.34 -8.5 6.41 -156.81c162.58,13.13 371.02,20.32 370.16,159.31 -46.09,30.08 90.24,106.25 -340.77,20.05l0.51 54.54c231.32,112.35 167.96,79.66 431.3,71.38 539.09,568.98 804.49,376.16 1060.74,521.04l694.13 -62.82 144.34 -29.86 524.39 -20.98 -45.06 -56.61c-341.12,-67.5 -771.33,-2.61 -1024.89,-136.32 -24.76,-112.78 3.09,-49.53 -78,-145.85 -1.14,-1.42 -96.42,-86.64 -103.91,-92.25 -71.82,-53.83 -151.48,-88.1 -204.78,-129.51 -399.22,-90.72 -557.51,-84.07 -891.99,14.11 -70.05,-83.03 -137.59,-151.46 -258.02,-198.38 -63.65,-24.79 -122.38,-44.84 -203.47,-42.77l-124.32 28.55c-7.26,-11.49 -25.05,11.01 -51.53,20.16l55.42 191.52z"/>
      <path class="fil5" d="M2116.3 3936.01l-4.24 13.46 67.31 45.06c8.52,6.32 47.29,37.21 58.45,45.27 279.01,201.11 392.98,105.76 549.15,76.61l34.37 77.69c113.92,145.53 306.12,106.36 449.37,55.36l-20.47 -105.32 -210.5 -30.07 186.31 -76.72 26.3 -125.1c-103.16,-192.65 -303.71,-111.64 -520.56,-37.81l-0.92 46.48c27.28,76.39 79.43,66.52 82.52,67.34 -362.56,46.26 -124.72,-400.57 -777.21,-310.89 2.86,118.67 39.4,158.77 80.12,258.64z"/>
      <path class="fil5" d="M8299.76 5513.67c69.66,102.27 197.52,202.58 375.32,205.74 277.63,23.48 367.59,54.16 625.15,-4.52l-48.2 -224.21c-115.64,-184.48 -370.86,-321.24 -731.76,-278.69 -95.5,108.54 -115.86,83.85 -240.81,148.69l20.3 152.99z"/>
      <path class="fil5" d="M3893.69 6312.48c-9.77,-83.58 -21.15,-48.28 94.3,-51.33l-922.35 -520.44c-611.72,-393.05 -387.66,-400.19 -1025.97,-443.67 62.27,222.35 153.2,370.06 316.06,476.69 179.51,117.63 274.78,92.68 564.89,102.65 -100.76,-80.47 -202.96,-111.86 -195.52,-195.71l59.76 -14.6c109.39,9.1 77.37,33.4 182.82,165.47 170.64,213.69 294.39,41.03 926.01,480.94z"/>
      <path class="fil5" d="M10061.38 5116.53c-296.97,113.6 -490.49,245.84 -597.02,501.32 314.01,-83.2 494.48,28 771.21,-74.48 284.84,-105.59 251.27,-230.85 497.06,-337.26 -103.45,-69.74 -62.22,-143.52 -302.12,-147.55 -120.09,-2.01 -285.7,25.17 -369.13,57.97z"/>
      <path class="fil5" d="M10577.25 5616.92c223.72,26.43 42.72,-42.01 184.71,108.32l-189.28 64.56c-98.19,-60.58 -73.03,146.51 -84.24,-124.11 -83.37,121.88 -90.24,81.62 -252.7,153.04 -87.04,38.25 -166.64,84.73 -285.42,146.35 -161.89,84.02 -436.04,224.26 -518.5,314.76l99.79 10.46c96.81,-35.74 -1.78,9.48 113.68,-58.24 232.41,-136.32 540.13,-311.33 820.85,-377.31 117.69,-27.68 -10.35,-77.81 155.15,9.37 364.96,35.09 742.1,-223.39 716.2,-565.72 -183.29,-39.55 -327.62,4.8 -467.16,71.22 -187.34,89.13 -171.5,130.21 -293.08,247.3z"/>
      <path class="fil5" d="M6937.59 1618.33c191.18,11.06 93.56,0 166.3,65.6 73.88,-56.06 27.39,48.77 72.57,-48.76 34.25,270.95 18.76,196.74 -166.24,296.99 91.61,290.52 -192.2,739.15 -149.43,1108.72 0.57,-1.31 226.23,-985.8 362.62,-1157.42l304.74 -228.46c56.79,-178.44 137.88,-207.42 46.32,-404.17 -105.56,8.12 -77.77,-10.68 -148.85,41.68 -128.56,94.7 -40.15,37.11 -91.04,125.05 -27.85,-48.77 -9.61,8.28 -50.33,-117.96 -14.46,-44.95 -21.78,-99.55 -31.79,-137.52 -274.21,24.84 -349.29,161.11 -314.87,456.25z"/>
      <path class="fil5" d="M1803.03 6018.31c70.8,-1.9 55.93,8.67 113.91,-6.43 203.47,-52.9 59.08,-12.36 137.82,-51.87l-3.31 -126.56c-48.04,-172.45 -123.98,-240.5 -280.1,-302.29 136.1,-86.3 63.65,-4.9 131.53,-125.09 -118.15,-281.42 -172.08,-410.44 -397.9,-393.77 -35.46,217.18 1.66,308.44 149.88,414.47 -8,2.13 -186.77,10.19 -262.08,37.27 -10.01,224.15 218.11,458 410.25,554.27z"/>
      <path class="fil5" d="M3601.82 7528.09c323.56,34 489.22,-4.63 642.37,-177.57 99.5,-112.35 226.45,-300.64 295.82,-463.06 -562.14,-32.53 -896.16,138.01 -938.19,640.63z"/>
      <path class="fil5" d="M2998.05 5435.22c251.5,238.2 666.79,235.37 983.37,144.98 -145.54,-111.09 -524.86,-664.99 -1152.64,-403.62 30.02,44.24 37.91,134.25 169.27,258.64z"/>
      <path class="fil5" d="M8496.14 6479.15l90.98 36.56c-7.43,3.05 -21.73,2.83 -25.96,17.16l-317.72 299.28c429.75,-188.62 626.7,-149.56 1115.07,-100.79l276.89 -171.74c-178.59,-228.4 62.56,48.76 -61.7,-93.6 -41.75,-79.17 -41.98,-61.9 -42.09,-175.72l-99.79 -10.46c-183.17,32.26 -270.32,78.13 -487.8,110.77 -78.29,11.77 -179.22,19.45 -258.65,33.07 -172.47,29.64 -63.71,-23.48 -189.23,55.47z"/>
      <path class="fil5" d="M3784.64 6467.27l-305.09 72.74c141.82,28.44 195.64,41.08 300.06,109.95 63.76,32.74 66.68,7.46 10.41,46.8l32.02 94.64 737.87 -93.33c45.81,-67.62 -21.5,-55.41 53.13,-80.21 -244.42,-47.12 -64.34,68.76 -173.22,-142.85 145.88,19.77 141.08,24.84 330.71,20.92 87.09,-1.8 101.45,-14.93 185.62,10.46l152 91.32 48.61 -97.48c-277.24,-123.68 -759.37,-57.1 -1168.77,-239.08 -115.45,3.05 -104.07,-32.25 -94.3,51.33l-10.12 134.19 -98.93 20.6z"/>
      <path class="fil5" d="M9802.96 7528.74c-5.27,-365.92 -453.72,-805.77 -862.77,-645.53 139.65,417.3 306.8,664.06 862.77,645.53z"/>
      <path class="fil5" d="M4436.9 5297.42c-86.63,125.86 -63.13,87.67 -181.5,171.58 -101.28,71.7 -76.46,5.94 -104.71,92.18 -87.1,265.67 -5.55,78.46 38.66,158.56 262.19,114.36 552.87,-46.75 802.95,-82.88l-5.84 8.29c85.38,-238.38 79.15,-69.47 91.1,-285.23 -193.35,-86.52 -120.66,-6.81 -256.14,-141.01l-384.52 78.51z"/>
      <path class="fil5" d="M2467.07 4897.61l-120.03 -86.25c-174.13,-119.75 -302.74,-156.75 -542.01,-174.02 -117.57,2.83 -136.5,14.17 -207.98,51.98 52.72,410.32 472.58,516.62 954.09,484.53 -17.56,-126.4 -51.3,-193.86 -84.07,-276.24z"/>
      <path class="fil5" d="M10147.56 3910.4l-8.87 123.36c399.85,64.72 182.26,41.13 482.37,-53.07 95.1,154.79 43.86,114.03 24.02,157.73 182.93,-34.6 229.14,48 424.89,-15.64 159.32,-51.81 181.51,-161.22 316.07,-273.35l6.06 -177.4c-514.91,-0.49 -385.49,21.03 -674.34,253.14 -296.11,-127.5 -242.93,-225.46 -570.2,-14.77z"/>
      <path class="fil5" d="M6542.49 1596.1l214.51 -9.31c-71.83,97.9 -71.71,71.97 -211.7,114.47 -30.6,116.6 -44.84,198.43 -30.08,332.14 7.95,72.41 2.91,90.28 38.94,144.87 108.88,165.09 -26.99,56.72 143.82,81.57l49.93 -1.31c53.92,-35.69 20.75,32.96 100.76,-87.18 109.45,-164.32 32.31,-347.17 34.77,-510.63 2.74,-182.03 81.09,-458.43 -227.77,-492.32 -142.8,142.86 -127.76,218.15 -113.18,427.7z"/>
      <path class="fil5" d="M8303.94 3897.82c-75.32,201.59 -176.82,389.02 -173.16,602.27l81.26 9.05c153.72,-314.11 218.68,-744.38 380.4,-1072.65 -105.16,-241.64 -128.32,-235.86 -138.33,-518.31 52.27,67.29 113.68,163.34 232.57,241.42 197.7,-56.17 205.87,-57.21 273.52,-241.8 -120.26,64.83 -145.36,103.63 -273.52,155.01l-119.06 -96.93c-131.18,-119.32 -183.22,-205.74 -196.2,-381.61 -23.91,-324.24 89.21,-376.39 115.46,-650.23 -49.01,41.19 -80.75,50.18 -133.7,198.49 -223.37,626.2 187.22,517.83 -49.24,1755.29z"/>
      <path class="fil5" d="M3505.69 3911.11l6.63 102.16c-180.71,-29.8 -117.8,-17.44 -259.97,-101.02l-26.3 125.1 -186.31 76.72 210.5 30.07 20.47 105.32c230.12,-53.01 538.46,24.03 721.4,102.43 123.64,53.02 231.72,99.66 326.48,151.53 153.08,83.74 110.71,74.48 317.55,114.14l32.31 -40.97c-169.73,-184.76 -379.2,-256.08 -625.67,-372.73 -314.81,-148.96 -442.45,-135.45 -411,-556.29 -16.52,-7.96 -24.93,-40.05 -31.16,-43.92 -4.12,-2.61 -33,15.31 -36.77,1.47 -6.75,-24.41 -26.02,33.4 -42.49,46.81 17.04,124.44 3.03,206.82 -15.67,259.18z"/>
      <path class="fil5" d="M9868.83 3796.58l73.72 93.55c2.11,6.92 0.85,25.72 1.25,38.58l-130.49 46.15 -19.79 9.75 53.64 10.3c172.24,-108.21 286.5,-370.44 309.89,-330.13l72.17 -25.88c439.76,-138.93 185.23,-139.04 446.57,-182.25 -61.08,94.42 -81.84,130 -59.82,289.37 214.5,-13.73 261.51,-80.36 376.91,-190.97l15.79 -14.66c-100.88,-38.9 -68.51,-16.78 -127.93,-91.31l118.32 -36.72 59.01 -122.54c14.64,-33.02 16.25,-17.16 37.58,-95.89 -133.19,-35.42 -231.26,-34.38 -385.1,36.12 -57.12,26.15 -233.2,123.57 -308.23,168.74 -420.43,253.14 -538.52,125.1 -533.49,397.79z"/>
      <path class="fil5" d="M9847.16 3994.91l-53.64 -10.3c-128.95,105.86 -32.2,39.28 -174.02,89.14 -151.25,116.81 -265.91,121.34 -466.86,205.79 -109.97,46.2 -306.18,184.43 -389.78,252.7l28.47 90.93c153.95,-124.93 403.17,-177.07 624.08,-272.97 276.72,-120.19 476.18,-133.81 748.27,-86.25l15.44 -107.49c181.68,-40.11 300.75,-22.72 465.96,-18.04 19.84,-43.7 71.08,-2.94 -24.02,-157.73 -300.11,94.2 -82.52,117.79 -482.37,53.07l8.87 -123.36 -81.72 36.07c-14.81,6.05 -74.4,55.47 -218.68,48.44z"/>
      <path class="fil5" d="M6137.5 2145.09c-61.53,-180.51 -368.28,-618.02 -523.31,-727.04 -73.94,-51.98 -186.77,-147.93 -262.71,-73.83 -174.13,169.99 159.03,749.82 786.02,800.87z"/>
      <path class="fil5" d="M6173.99 1357.95l-12.47 134.74c-45.92,-60.42 -75.26,-97.42 -135.02,-166.56 -168.75,-126.9 28.94,-74.81 -268.54,-91.37 95.1,620.36 127.52,320.1 433.58,688.47l66.85 68.49 -26.36 -371.92c157.72,80.48 235.04,178.6 236.29,-131.8 0.92,-214.78 -75.71,-287.24 -234.97,-316.44l-59.36 186.39z"/>
      <path class="fil5" d="M11085.87 4759.39c-118.66,191.56 -117.98,88.7 -141.37,333.72 210.28,29.31 221.26,22.55 406.65,-38.25 224.34,-73.61 139.02,-69.85 318.19,-173.48 10.06,-5.51 25.1,-26.05 29.39,-17.77 6,11.56 39.57,-24.08 58.56,-36.5 52.09,-34.05 16.98,-15.8 87.49,-59.28 -84.69,-138.28 -38.77,-102.98 -208.44,-158.33 -248.42,-13.62 -414.2,13.73 -550.47,149.89z"/>
      <path class="fil5" d="M6057.96 3365.99l78.74 -16.62c-95.33,-201.54 4,-215.32 -151.03,-401.66 -209.47,-95.84 -349,8.39 -461.6,111.75 15.95,277.33 299.77,466.12 533.89,306.53z"/>
      <path class="fil5" d="M3590.38 2259.51l0 79.38 49.29 18.2c169.1,132.56 107.34,97.53 135.94,186.99 -71.03,83.86 -165.56,143.63 -302.92,88.11 -150.46,-60.86 -164.92,-181.17 -159.72,-381.02 -89.61,112.9 -56.21,230.69 -109.28,359.82 212.62,73.99 160.23,76.06 328.93,236.03 72.51,-91.7 79.09,-143.46 281.64,-83.52 4.29,1.25 153.15,74.86 160.24,78.78l156.57 88.65c87.1,-10.46 51.24,9.15 44.44,-105.59l-223.54 -196.31c-67.83,-43.37 -98.99,-51.16 -121.87,-135.24 -76.4,-280.81 82.35,-224.58 101.74,-237.28l-341.46 3z"/>
      <path class="fil5" d="M7333.26 3228.47l22.36 164.27 219.02 13.57c144.57,-14.88 217.65,-47.02 266.15,-150.87 64.62,-138.39 46.72,-196.26 -58.73,-262.51 -196.15,-123.3 -437.88,-4.85 -448.8,235.54z"/>
      <path class="fil5" d="M5781.92 2812.48l20.42 -268.4 -215.6 -100.08c-156.74,-38.09 -144.85,-25.34 -284.84,11 -55.81,351.54 -7.95,286.05 195.18,438.06l284.84 -80.58z"/>
      <path class="fil5" d="M8781.38 4841.06l-18.3 93.88c256.31,49.41 161.21,42.17 400.76,7.41l84.24 18.3c7.15,2.02 28.25,7.58 35.91,9.81l59.3 20.65 137.48 -13.29c467.9,2.5 826.11,122.53 1158.3,-163.3 6.41,-5.5 17.9,-17.7 27.11,-26.31 -330.42,121.77 -534.18,200.01 -938.71,174.68 -11.89,-227.7 -46.26,-145.97 63.7,-295.53 -171.84,29.42 -23.44,-36.72 -129.64,57.65 -49.35,43.86 -33.34,56.06 -60.38,104.66l-819.77 11.39z"/>
      <path class="fil5" d="M7679.24 2401.01c189.57,13.45 336.31,-9.27 459.49,-101.62 145.99,-109.51 149.31,-168.95 187,-344.67 -334.08,-105.05 -541.27,157.41 -646.49,446.29z"/>
      <path class="fil5" d="M6264.17 2853.23c61.87,-79.49 170.19,-103.57 -8.92,-432.12 -99.45,-182.47 -180.08,-253.68 -443.88,-252.15 307.15,763.27 160.92,306.36 452.8,684.27z"/>
      <path class="fil5" d="M11794.57 7295.49c170.25,37.22 277.53,-23.64 372.57,-78.95 -78.92,-348.64 -477.73,-364.88 -689.95,-148.68 73.6,86.19 191.8,200.17 317.38,227.63z"/>
      <path class="fil5" d="M1214.19 7206.36c146.11,118.23 514.67,224.85 715.56,-195.61 -163.38,-37.37 -416.88,-228.61 -715.56,195.61z"/>
      <path class="fil5" d="M1803.03 6018.31l133.3 89.85c-212.16,60.69 -35.4,21.14 -263.68,-17.16 -99.74,-16.68 -174.02,-17.49 -273.41,-17.88 31.74,196.2 189.8,256.79 420.03,256.96 -51.41,-77.75 -29.51,-19.4 -29.05,-120.42 228.63,-42 100.76,-88.7 154.92,62.5l70.91 6.7 134.39 -37.38c131.58,-68.43 52.32,-12.09 113.97,-99.65 -61.76,-82.27 -128.5,-213.36 -212.96,-308.38l3.31 126.56c-78.74,39.51 65.65,-1.03 -137.82,51.87 -57.98,15.1 -43.11,4.53 -113.91,6.43z"/>
      <path class="fil5" d="M8013.43 2857.37c92.64,-127.98 106.71,-138.93 123.3,-348.21 -352.04,-59.33 -527.32,15.58 -590.39,320.86 153.37,34.71 286.39,65.49 467.09,27.35z"/>
      <path class="fil5" d="M5280.97 1895.88l-169.61 4.74c1.2,370.88 231.77,416.32 565.91,459.96 -47.18,-305.77 -118.09,-390.6 -396.3,-464.7z"/>
      <path class="fil5" d="M6867.14 4170.84c-7.21,150.05 10.24,209.33 6.86,384.17 227.6,-212.49 213.02,-918.23 562.54,-1079.23l138.1 -69.47 -219.02 -13.57 -22.36 -164.27c-55.13,107.28 -41.57,157.3 -106.59,284.08 -28.48,55.52 -85.38,140.14 -115.29,207.7 -80.63,182.03 -94.13,296.78 -244.24,450.59z"/>
      <path class="fil5" d="M11595.22 5139.42c-26.99,44.84 -60.67,101.94 -87.03,150.27 -79.95,146.62 46.03,-3.54 -24.59,47.51 101.67,92.4 -113.63,80.53 191.23,60.48l246.35 -87.94c38.2,-249.6 156.81,-309.7 -186.82,-313.94 -53.93,76.66 -56.33,107.49 -139.14,143.62z"/>
      <path class="fil5" d="M4175.51 2825.34c45.75,-274.83 21.21,-468.14 -243.67,-568.83 -19.39,12.7 -178.14,-43.53 -101.74,237.28 22.88,84.08 54.04,91.87 121.87,135.24l223.54 196.31z"/>
      <path class="fil5" d="M10370.76 3011.62l-66.97 59.01c-220.34,180.78 -129.81,141.55 -317.27,387.82 170.59,-62.71 477.16,-16.07 647.01,-451.73l-262.77 4.9z"/>
      <path class="fil5" d="M11369.51 6155.67c-186.43,14.11 -165.5,30.57 -200.67,73.28l-28.13 55.74c-3.55,5.34 -28.19,29.15 -40.6,38.9 77.25,-2.12 229.48,6.92 290.73,-6.65 154.34,-34.21 99.22,35.09 -112.6,-69.57 198.89,-13.51 200.84,-3.11 349.06,-75.9 -0.22,0.27 -27.56,3.81 -33.11,49.15l13.16 62.98c0.45,-8.55 8.52,26.26 13.84,39.01 218.85,-2.78 314.4,-60.97 397.61,-224.15 -173.73,-75.62 -430.55,22.34 -649.29,57.21z"/>
      <path class="fil5" d="M9697.33 2642.48c265.69,124.39 422.15,-119.86 386.98,-417.73 -256.94,22.17 -463.72,208.08 -386.98,417.73z"/>
      <path class="fil5" d="M6526.94 4475.85l40.37 -305.28c-117.11,-96.28 -76.23,-43.81 -151.43,-198 -21.78,-44.62 -64.62,-133.11 -86.8,-188.41 -80.41,-200.07 -101.34,-266.81 -192.38,-434.79l-78.74 16.62c42.66,122.32 379.14,1022.68 468.98,1109.86z"/>
      <path class="fil5" d="M2804.24 3031.12c94.42,167.98 244.42,323.26 503.3,379.71 8.12,-120.41 2.11,-169.72 -57.36,-246.38 -53.18,-68.6 -6.12,-5.99 -73.43,-67.24l-113.11 -105.37 -244.3 -30.18 -15.1 69.46z"/>
      <path class="fil5" d="M8043.91 1864.98c341.92,-46.58 436.73,-33.67 434.5,-409.83 -318.01,20.54 -340.77,170.76 -434.5,409.83z"/>
      <path class="fil5" d="M4992.3 5636.86c-250.08,36.13 -540.76,197.24 -802.95,82.88 -44.21,-80.1 -125.76,107.11 -38.66,-158.56 28.25,-86.24 3.43,-20.48 104.71,-92.18 118.37,-83.91 94.87,-45.72 181.5,-171.58 -225.94,73.99 -401.44,175.01 -400.7,431.74 214.79,169.61 753.83,129.08 956.1,-92.3z"/>
      <path class="fil5" d="M3063.64 2991.84l169.96 -95.46 140.1 114.15c-74.91,-138.66 -126.95,-165.85 -231.77,-235.65l16.41 -120.95 -287.93 -43.54c-37.12,229.98 35.51,313.56 193.23,381.45z"/>
      <path class="fil5" d="M3496.65 6987.44c-212.22,62 -29.22,67.56 -209.3,189.17 -156.23,105.48 -123.41,-21.85 -250.99,167.59 141.94,-34.21 295.2,-47.4 425.41,-78.67 187.45,-45.01 208.1,-72.52 186.02,-289.81l-151.14 11.72z"/>
      <path class="fil5" d="M5196.16 1799.33l90.41 8.01 0.75 -140.08c-22.93,-39.39 -100.42,-236.96 -351.64,-248.72 -29.85,233.3 19.44,346.85 260.48,380.79z"/>
      <path class="fil5" d="M9910.24 6979.15c-179,7.8 -52.16,-36.23 -164.93,42.56 13.61,192.65 90.93,218.21 322.59,258.2 300.85,51.87 198.32,104.99 404.76,141.06 -98.59,-49.03 -235.03,-128.86 -310.81,-194.45 -130.21,-112.73 -123.17,-177.68 -251.61,-247.37z"/>
      <path class="fil5" d="M3639.67 2357.09l31.86 195.93c-237.84,0.54 -299.32,2.56 -296.17,-240.82l215.02 26.69 0 -79.38c-171.73,-17.27 -136.73,-56.88 -277.41,-8.34 -5.2,199.85 9.26,320.16 159.72,381.02 137.36,55.52 231.89,-4.25 302.92,-88.11 -28.6,-89.46 33.16,-54.43 -135.94,-186.99z"/>
      <path class="fil5" d="M3830.16 1923.39c-41.57,156.43 -54.38,83.04 10.24,213.53 153.54,64.07 127.86,51.32 295.76,-16.18 -2.23,-204.05 -109.85,-338.46 -306,-197.35z"/>
      <path class="fil5" d="M3914.05 5908.25c77.03,204.54 240.07,282.51 498.44,313.18 -108.71,-206.22 -164.7,-322.6 -498.44,-313.18z"/>
      <path class="fil5" d="M9358.51 6731.36l400.07 146.07 68.16 -27.68c-130.84,-77.75 -131.75,-53.12 -184.82,-197.34 66.16,-35.69 -27.22,-6.76 106.99,-42.55 28.37,-7.58 49.13,-2.4 83.44,-1.91 90.35,-86.31 -111.97,-43.75 99.5,-72.03 -53.18,-2.18 -130.04,-1.14 -178.7,-10.73 -196.32,-38.8 -14.93,7.13 -106.08,-46.81l-73.37 -12.36c124.26,142.36 -116.89,-134.8 61.7,93.6l-276.89 171.74z"/>
      <path class="fil5" d="M9227.66 2000.22c57.53,138.12 42.32,120.68 184.43,188.95 160.23,-45.66 174.99,-63.69 233.49,-193.09 -143.31,-92.63 -276.72,-106.79 -417.92,4.14z"/>
      <path class="fil5" d="M11669.34 4881.38c-179.17,103.63 -93.85,99.87 -318.19,173.48 -185.39,60.8 -196.37,67.56 -406.65,38.25 23.39,-245.02 22.71,-142.16 141.37,-333.72 -278.84,190.26 -143.54,147.27 -265.46,331.92 -6.06,9.21 -19.33,23.1 -24.76,30.45l-59.53 59.28c228.23,-9.53 364.62,-9.31 588.56,-70.88 208.5,-57.37 286.21,-72.41 344.66,-228.78z"/>
      <path class="fil5" d="M8675.08 5719.41c152.85,124.28 393.78,140.52 580.32,96.33l163.84 -86.58c-18.25,-194.62 8.86,-147.16 -167.21,-238.48l48.2 224.21c-257.56,58.68 -347.52,28 -625.15,4.52z"/>
      <path class="fil5" d="M10621.29 5864.12c-178.42,78.02 -117.41,59.23 -192.66,156.48 220.45,88.7 393.04,157.24 480.47,-60.59 -159.77,-100.9 -117.34,-7.57 -287.81,-95.89z"/>
      <path class="fil5" d="M5328.72 4298.12l88.92 203.5c350.38,-27.63 502.96,-363.36 468.3,-570.35 -24.36,-145.58 43.06,-26.48 -60.56,-109.3 19.79,348.71 -27.05,478.05 -330.36,567.35l-166.3 -91.2z"/>
      <path class="fil5" d="M10295.67 2800.27c-97.33,39.94 -112.37,-67.78 -73.6,95.57l148.69 115.78c71.36,-172.34 183.96,-105.21 183.62,-401.72 -63.48,25.45 -69.25,15.26 -142.16,62.22l-105.63 106.9c-2.23,3.16 -6.86,14.39 -10.92,21.25z"/>
      <path class="fil5" d="M7913.19 3115.36c253.04,-60.26 298.56,-129.95 378.62,-308.66 -155.94,-112.07 -6.63,-104.34 -202.89,37.76 -173.33,125.42 -114.43,15.85 -175.73,270.9z"/>
      <path class="fil5" d="M8486.88 1944.04l196.66 -277.16c264.71,47.13 318.07,63.47 378.91,526.81 71.37,-48 42.49,18.69 47.47,-81.83l-33.86 -156.92c-45.97,-223.66 -98.3,-307.35 -292.62,-387.12 -116.31,45.72 -89.66,17.22 -192.31,151.36l-104.25 224.86z"/>
      <path class="fil5" d="M9007.33 6164.39c256.02,-18.31 438.67,-46.59 426.83,-272.21 -245.44,20.27 -322.58,102.7 -426.83,272.21z"/>
      <path class="fil5" d="M1835.74 4388.4l35.8 22.55c431.01,86.2 294.68,10.03 340.77,-20.05 0.86,-138.99 -207.58,-146.18 -370.16,-159.31l-6.41 156.81z"/>
      <path class="fil5" d="M9343.29 4991.11l-59.3 -20.65c-7.66,-2.23 -28.76,-7.79 -35.91,-9.81l-84.24 -18.3c-54.72,121.55 -81.09,125.42 -65.53,289.96l254.99 -19.88 -10.01 -221.32z"/>
      <path class="fil5" d="M4986.46 5645.15c62.68,-37.93 127.58,-58.74 179.62,-135.73 83.84,-123.95 41.69,-40.04 57.82,-218.59l-402.48 -71.92c135.48,134.2 62.79,54.49 256.14,141.01 -11.95,215.76 -5.72,46.85 -91.1,285.23z"/>
      <path class="fil5" d="M2904.15 6098.24c-70.11,-182.63 75.08,-165.47 -233.38,-154.03 -228.34,8.45 -190.09,38.63 -254.42,88.65 153.37,41.95 299.08,62.39 487.8,65.38z"/>
      <path class="fil5" d="M3639.67 2357.09l-49.29 -18.2 -215.02 -26.69c-3.15,243.38 58.33,241.36 296.17,240.82l-31.86 -195.93z"/>
      <path class="fil5" d="M4668.45 4576.59l-32.31 40.97 205.01 151.69c9.84,-12.1 25.45,-44.57 29.85,-36.02 4.12,8.01 20.65,-26.48 26.02,-34.98 148.46,-234.77 -20.07,-98.56 137.36,-178.93l-110.08 -84.39 -59.13 46.04c-25.79,105.26 25.33,39.28 -47.24,89.63l-149.48 5.99z"/>
      <path class="fil5" d="M8600.96 4768.65c8.35,-7.19 20.88,-29.86 24.53,-22.18 5.21,10.95 19.62,-19.67 49.87,-43.48 51.35,-40.32 41.86,-36.99 115.97,-79.82l-28.47 -90.93 -124.5 17.87c-77.54,-24.74 -53.81,52.74 -53.18,-113.22l-151.77 257.88c137.01,10.08 88.18,-3.65 167.55,73.88z"/>
      <path class="fil5" d="M8866.42 3282.41l-6.86 175.66c116.14,-53.02 1.88,108.59 113.11,-90.83 1.72,-3.05 93.84,-261.85 52.56,-350.34 -168.82,49.75 -107.4,54.38 -158.81,265.51z"/>
      <path class="fil5" d="M9417.86 3213.49l-59.35 -52.15c-13.21,-9.69 -91.33,-61.78 -93.85,-63.31l2.92 -169.01c-63.31,51.16 -41.57,-17.16 -110.77,112.18 -53.41,99.82 -33.8,102.33 -46.15,203.67 139.82,0.22 205.53,-16.95 307.2,-31.38z"/>
      <path class="fil5" d="M4045.35 5096.76c-55.87,121.5 -25.79,152.93 156.86,191.62l128.39 -171.9 -124.61 -61.02 -160.64 41.3z"/>
      <path class="fil5" d="M4405.39 1816.38c87.27,-39.39 125.7,-55.9 219.2,-91.31l178.13 34.87c-43,-57.76 -4,-49.2 -104.93,-123.03 -76.52,-56.01 -67.08,-34.11 -129.87,-56.39 -102.59,69.3 -107.51,82.33 -162.53,235.86z"/>
      <path class="fil5" d="M10577.25 5616.92c-123.17,-31.65 -107.22,-63.96 -88.81,48.77 11.21,270.62 -13.95,63.53 84.24,124.11l189.28 -64.56c-141.99,-150.33 39.01,-81.89 -184.71,-108.32z"/>
      <path class="fil5" d="M5247.63 4707.9c7.26,-9.05 14.24,-37.33 17.96,-29.64 21.96,45.6 34.54,-46.04 43.8,-53.02 101.79,-76.71 -57.3,-9.97 100.53,-48 -57.81,-100.2 24.54,-16.51 -79.54,-118.5 -89.1,-87.29 4.92,-13.24 -117.52,-68.93l2.06 42.5 32.71 275.59z"/>
      <path class="fil5" d="M8299.76 5513.67l-20.3 -152.99c124.95,-64.84 145.31,-40.15 240.81,-148.69l-361.13 99.22c22.71,56.72 7.78,56.44 37.29,100.52 92.75,138.5 22.36,43.43 103.33,101.94z"/>
      <path class="fil5" d="M4681.89 4887.64l45.06 56.61 128.78 8.34c185.97,-9.1 67.54,-94.31 11.73,-160.73 -85.15,48.98 -113.75,61.24 -185.57,95.78z"/>
      <path class="fil5" d="M8458 4450.13l135.18 -3.87c102.31,-81.73 16.87,118.89 93.79,-129.89l-108.71 -47.73c-22.99,21.25 -36.49,25.44 -78.75,85.81 -7.03,9.97 -35.91,81.24 -41.51,95.68z"/>
      <path class="fil5" d="M5393.4 3004.1c2.17,-67.29 31.85,-41.79 -125.7,-179.31 -45.06,137.57 0.57,177.57 82.24,277.38 41.51,-65.27 36.88,107.23 43.46,-98.07z"/>
      <path class="fil5" d="M8151.54 4632.27c66.68,-41.46 46.72,81.46 60.5,-123.13l-81.26 -9.05 -160.81 12.64 181.57 119.54z"/>
      <path class="fil5" d="M9791.17 4667.36c145.77,-35.8 158.81,-64.51 234.18,-194.51l-147.31 40.81c-32.31,66.03 -52.72,103.14 -86.87,153.7z"/>
      <path class="fil5" d="M1819.27 6330.08l125.87 -57.92c-54.16,-151.2 73.71,-104.5 -154.92,-62.5 -0.46,101.02 -22.36,42.67 29.05,120.42z"/>
      <path class="fil5" d="M6545.3 1701.26c139.99,-42.5 139.87,-16.57 211.7,-114.47l-214.51 9.31 2.81 105.16z"/>
      <path class="fil5" d="M9813.31 3974.86l130.49 -46.15c-0.4,-12.86 0.86,-31.66 -1.25,-38.58l-73.72 -93.55c-79.66,48.55 -38.83,-11.28 -55.52,178.28z"/>
      <polygon class="fil5" points="4058.22,4995.09 4045.35,5096.76 4205.99,5055.46 4202.56,4965.23 "/>
      <path class="fil5" d="M7103.89 1683.93c-72.74,-65.6 24.88,-54.54 -166.3,-65.6l88.07 154.74 78.23 -89.14z"/>
      <path class="fil5" d="M5196.16 1799.33c-50.21,73.06 -9.38,63.91 -84.8,101.29l169.61 -4.74 6.35 -228.62 -0.75 140.08 -90.41 -8.01z"/>
      <path class="fil5" d="M6173.99 1357.95l-147.49 -31.82c59.76,69.14 89.1,106.14 135.02,166.56l12.47 -134.74z"/>
      <path class="fil5" d="M6171.36 2897.75c-46.5,-125.05 -18.93,-82.88 -157.84,-139.87 61.36,109.41 -6.8,30.41 65.14,101.24 77.6,76.44 -3.2,9.04 92.7,38.63z"/>
      <path class="fil5" d="M11008.67 3540.39l-9.61 -128.03 -118.32 36.72c59.42,74.53 27.05,52.41 127.93,91.31z"/>
     </g>
     <path class="fil4" d="M1063.6 7291.2c0.57,270.8 56.37,517.51 119.58,764.03 28.75,112.04 72.25,235.62 117.32,331.42 45.56,96.81 90.1,263.8 123.1,357.34 69.05,195.62 347.98,678.65 495.99,864.77 64.55,81.2 131.85,214.56 248.76,229.83 456.26,-102.81 945.69,-22.2 1352.59,92.77 445.49,125.87 556.24,341.99 786.3,631.85 356.96,449.74 1403.24,750.69 1926.2,924.76 -51.11,-356.04 -384.47,-434.28 -758.2,-552.62 -287.51,-91.06 -650.51,-317.08 -659.38,-621.47 98.32,264.61 481.04,478.72 810.51,543.42 305.21,59.95 360.45,134.89 625.82,404.21l139.14 158.65c2.51,-5.08 11.62,11.12 18.02,16.09 208.35,-159.73 102.94,-680.2 63.62,-752.58 -83.63,-153.86 -293.31,-343.32 -429.13,-454.96 -210.29,-172.77 -1049.8,-263.13 -697.49,-931.32 243.53,-12.46 364.09,179.93 755.68,169.37 439.54,-11.87 303.8,-257.83 478.74,-421.6 78.07,11.9 39.52,-0.96 84.19,36.97l64.06 175.85c170.24,578.91 762.08,92.06 1188.9,8.08 4.74,6.64 9.68,16.39 12.19,20.95 436.13,799.33 -832.18,700.93 -1099.29,1243.17 -26.76,54.31 -39.07,103.89 -66.69,156.24 -29.68,56.35 -43.21,55.09 -65.89,128.95 -36.65,119.38 -40.37,227.16 -16.24,330.83 94.16,-34.96 103.63,-64.33 205.19,-124.46 180.13,-106.64 952.66,-361.76 1216.52,-455 188.23,-66.52 315.5,-194.47 414.55,-220.79 -337.4,328.01 -461.03,368.31 -992.25,569.86 -200.74,76.15 -399.04,137.18 -581.35,220.42 -160.97,73.48 -395.76,186.49 -392.97,351.52 548.39,56.91 2038.7,-564.27 2327.47,-807.71 303.96,-256.27 335.26,-545.21 816.51,-728.55 590.3,-224.87 833.75,-76.6 1431.43,-148.19 179.67,-117.68 741.1,-1147.1 811.64,-1394.44 99.74,-349.74 184.01,-766.22 197.3,-1144.25l-598.48 387.41c-197.9,133.18 -380.5,245.08 -589.98,370.28 -1703.56,1018.23 -1483.51,166.55 -2231.62,436.61 -256.21,92.47 -402.52,241.04 -629.7,335.21 -818.98,339.51 -859.84,174.26 -1230.57,202.18 -439.25,33.07 -188.35,-47.35 -343.48,-73.64 -202.72,-34.33 -549.53,387.56 -1470.63,-256.53 -794.72,-555.73 -729.85,-76.08 -1499.5,-135.22 -503.89,-38.7 -999.71,-342.95 -1323.11,-544.79 -209.4,-130.7 -383.12,-228.95 -567.78,-359.5 -102.94,-72.78 -182.11,-113.04 -278.57,-185.04 -92.41,-68.97 -166.64,-127.92 -309.02,-150.38z"/>
    </g>
   </g>
   <path class="fil6" d="M12114.53 6470.37c0,3080.15 -2422.98,5577.1 -5411.88,5577.1 -2988.9,0 -5411.88,-2496.95 -5411.88,-5577.1 0,-3080.14 2422.98,-5577.09 5411.88,-5577.09 2988.9,0 5411.88,2496.95 5411.88,5577.09z"/>
  </g>
 </g>
</svg>
