<svg width="24" height="24" viewBox="0 0 24 24" fill="none" xmlns="http://www.w3.org/2000/svg">
<g clip-path="url(#clip0_151_785)">
<circle cx="12" cy="12" r="12" transform="matrix(-1 0 0 1 24 0)" fill="#FAFAFA"/>
<path d="M20.4853 3.51442C22.7357 5.76486 24 8.81711 24 11.9997C24 15.1823 22.7357 18.2345 20.4853 20.485C18.2348 22.7354 15.1826 23.9997 12 23.9997C8.8174 23.9997 5.76516 22.7354 3.51472 20.485C1.26428 18.2345 1.42227e-06 15.1823 2.42155e-07 11.9997C4.10743e-07 8.81711 1.26428 5.76486 3.51472 3.51442C5.76516 1.26399 8.8174 -0.000293263 12 -0.000293263C15.1826 -0.000293263 18.2348 1.26399 20.4853 3.51442ZM17.1962 12.7496C17.2957 12.7513 17.3947 12.7332 17.4872 12.6963C17.5797 12.6594 17.6639 12.6044 17.7349 12.5346C17.8059 12.4648 17.8624 12.3816 17.9009 12.2897C17.9394 12.1979 17.9592 12.0993 17.9592 11.9997C17.9592 11.9001 17.9394 11.8015 17.9009 11.7097C17.8624 11.6178 17.8059 11.5346 17.7349 11.4648C17.6639 11.395 17.5797 11.34 17.4872 11.3031C17.3947 11.2662 17.2957 11.2481 17.1962 11.2498L8.50725 11.2498L11.4432 8.31391C11.5838 8.17326 11.6628 7.98249 11.6628 7.78358C11.6628 7.58467 11.5838 7.3939 11.4432 7.25325C11.3025 7.1126 11.1117 7.03358 10.9128 7.03358C10.7139 7.03358 10.5231 7.1126 10.3825 7.25325L6.16637 11.4694C6.02572 11.61 5.9467 11.8008 5.9467 11.9997C5.9467 12.1986 6.02572 12.3894 6.16637 12.53L10.3825 16.7462C10.5231 16.8868 10.7139 16.9658 10.9128 16.9658C11.1117 16.9658 11.3025 16.8868 11.4432 16.7462C11.5838 16.6055 11.6628 16.4147 11.6628 16.2158C11.6628 16.0169 11.5838 15.8262 11.4432 15.6855L8.50725 12.7496L17.1962 12.7496Z" fill="#F58634"/>
</g>
<defs>
<clipPath id="clip0_151_785">
<rect width="24" height="24" fill="white" transform="matrix(-1 0 0 1 24 0)"/>
</clipPath>
</defs>
</svg>
