<svg width="24" height="24" viewBox="0 0 24 24" fill="none" xmlns="http://www.w3.org/2000/svg">
<g clip-path="url(#clip0_151_782)">
<circle cx="12" cy="12" r="12" fill="#FAFAFA"/>
<path d="M3.51472 3.51442C1.26428 5.76486 4.10743e-07 8.81711 2.42155e-07 11.9997C1.42227e-06 15.1823 1.26428 18.2345 3.51472 20.485C5.76516 22.7354 8.8174 23.9997 12 23.9997C15.1826 23.9997 18.2348 22.7354 20.4853 20.485C22.7357 18.2345 24 15.1823 24 11.9997C24 8.81711 22.7357 5.76486 20.4853 3.51442C18.2348 1.26399 15.1826 -0.000293263 12 -0.000293263C8.8174 -0.000293263 5.76516 1.26399 3.51472 3.51442ZM6.80383 12.7496C6.70425 12.7513 6.60533 12.7332 6.51284 12.6963C6.42034 12.6594 6.33612 12.6044 6.26509 12.5346C6.19406 12.4648 6.13765 12.3816 6.09914 12.2897C6.06063 12.1979 6.04079 12.0993 6.04079 11.9997C6.04079 11.9001 6.06063 11.8015 6.09914 11.7097C6.13765 11.6178 6.19406 11.5346 6.26509 11.4648C6.33612 11.395 6.42034 11.34 6.51284 11.3031C6.60533 11.2662 6.70425 11.2481 6.80383 11.2498L15.4928 11.2498L12.5568 8.31391C12.4162 8.17326 12.3372 7.98249 12.3372 7.78358C12.3372 7.58467 12.4162 7.3939 12.5568 7.25325C12.6975 7.1126 12.8883 7.03358 13.0872 7.03358C13.2861 7.03358 13.4769 7.1126 13.6175 7.25325L17.8336 11.4694C17.9743 11.61 18.0533 11.8008 18.0533 11.9997C18.0533 12.1986 17.9743 12.3894 17.8336 12.53L13.6175 16.7462C13.4769 16.8868 13.2861 16.9658 13.0872 16.9658C12.8883 16.9658 12.6975 16.8868 12.5568 16.7462C12.4162 16.6055 12.3372 16.4147 12.3372 16.2158C12.3372 16.0169 12.4162 15.8262 12.5568 15.6855L15.4928 12.7496L6.80383 12.7496Z" fill="#F58634"/>
</g>
<defs>
<clipPath id="clip0_151_782">
<rect width="24" height="24" fill="white"/>
</clipPath>
</defs>
</svg>
